<svg width="27" height="27" viewBox="0 0 27 27" fill="none" xmlns="http://www.w3.org/2000/svg">
    <path d="M13.5 2.69995C12.7516 2.69995 12.1105 3.156 11.8389 3.80562L2.07071 20.6525V20.6542C1.89441 20.9382 1.80068 21.2657 1.8 21.6C1.8 22.0773 1.98965 22.5352 2.32721 22.8727C2.66478 23.2103 3.12261 23.4 3.6 23.4C3.64224 23.3997 3.68445 23.3979 3.72657 23.3947L3.73008 23.4H13.5H23.2699L23.2734 23.3929C23.3155 23.3967 23.3577 23.3991 23.4 23.4C23.8774 23.4 24.3352 23.2103 24.6728 22.8727C25.0104 22.5352 25.2 22.0773 25.2 21.6C25.1997 21.2651 25.1059 20.937 24.9293 20.6525L24.9152 20.6279C24.9147 20.6273 24.9141 20.6267 24.9135 20.6261L15.1611 3.80562C14.8895 3.156 14.2484 2.69995 13.5 2.69995ZM12.4084 10.2234H14.5916L14.4105 16.0488H12.5895L12.4084 10.2234ZM13.5035 17.8294C14.2433 17.8294 14.6865 18.2275 14.6865 18.907C14.6865 19.5739 14.2433 19.9705 13.5035 19.9705C12.7583 19.9705 12.3117 19.5739 12.3117 18.907C12.3117 18.2275 12.7574 17.8294 13.5035 17.8294Z" fill="#D84242"/>
</svg>
