<svg width="40" height="37" viewBox="0 0 40 37" fill="none" xmlns="http://www.w3.org/2000/svg">
<path d="M28.7254 0.338989C23.1121 0.338989 20 4.50104 20 4.50104C20 4.50104 16.8879 0.338989 11.2746 0.338989C5.38394 0.338989 0.610168 5.24184 0.610168 11.2917C0.610168 19.5979 10.1345 27.6472 12.7889 30.1902C15.8467 33.1176 20 36.8814 20 36.8814C20 36.8814 24.1533 33.1176 27.2111 30.1902C29.8655 27.6472 39.3898 19.5979 39.3898 11.2917C39.3898 5.24184 34.6161 0.338989 28.7254 0.338989ZM25.4505 26.4464C25.1073 26.765 24.8087 27.0418 24.5663 27.2748C23.1101 28.6688 21.3883 30.2679 20 31.5464C18.6117 30.2679 16.8879 28.6668 15.4337 27.2748C15.1894 27.0418 14.8908 26.763 14.5495 26.4464C11.7962 23.8914 4.48813 17.1047 4.48813 11.2917C4.48813 7.44832 7.53234 4.32181 11.2746 4.32181C14.8171 4.32181 16.8705 6.86086 16.9248 6.92657L20 10.296L23.0752 6.92657C23.0946 6.90069 25.1829 4.32181 28.7254 4.32181C32.4677 4.32181 35.5119 7.44832 35.5119 11.2917C35.5119 17.1047 28.2038 23.8914 25.4505 26.4464Z" fill="white"/>
</svg>
