<svg width="88" height="88" viewBox="0 0 88 88" fill="none" xmlns="http://www.w3.org/2000/svg">
    <circle cx="44" cy="44" r="44" fill="#B0B0B0"/>
    <path d="M52.7254 28.339C47.1121 28.339 44 32.501 44 32.501C44 32.501 40.8879 28.339 35.2746 28.339C29.3839 28.339 24.6102 33.2418 24.6102 39.2917C24.6102 47.5979 34.1345 55.6472 36.7889 58.1902C39.8467 61.1176 44 64.8814 44 64.8814C44 64.8814 48.1533 61.1176 51.2111 58.1902C53.8655 55.6472 63.3898 47.5979 63.3898 39.2917C63.3898 33.2418 58.6161 28.339 52.7254 28.339ZM49.4505 54.4464C49.1073 54.765 48.8087 55.0418 48.5663 55.2748C47.1101 56.6688 45.3883 58.2679 44 59.5464C42.6117 58.2679 40.8879 56.6668 39.4337 55.2748C39.1894 55.0418 38.8908 54.763 38.5495 54.4464C35.7962 51.8914 28.4881 45.1047 28.4881 39.2917C28.4881 35.4483 31.5323 32.3218 35.2746 32.3218C38.8171 32.3218 40.8705 34.8609 40.9248 34.9266L44 38.296L47.0752 34.9266C47.0946 34.9007 49.1829 32.3218 52.7254 32.3218C56.4677 32.3218 59.5119 35.4483 59.5119 39.2917C59.5119 45.1047 52.2038 51.8914 49.4505 54.4464Z" fill="white"/>
</svg>
