<svg width="137" height="27" viewBox="0 0 137 27" fill="none" xmlns="http://www.w3.org/2000/svg">
<path d="M9.15483 4.63778C9.09801 4.06487 8.85417 3.61979 8.4233 3.30256C7.99242 2.98532 7.40767 2.8267 6.66903 2.8267C6.16714 2.8267 5.74337 2.89773 5.39773 3.03977C5.05208 3.17708 4.78693 3.36884 4.60227 3.61506C4.42235 3.86127 4.33239 4.14062 4.33239 4.45312C4.32292 4.71354 4.37737 4.94081 4.49574 5.13494C4.61884 5.32907 4.78693 5.49716 5 5.6392C5.21307 5.77651 5.45928 5.89725 5.73864 6.00142C6.01799 6.10085 6.31629 6.18608 6.63352 6.2571L7.94034 6.5696C8.57481 6.71165 9.1572 6.90104 9.6875 7.13778C10.2178 7.37453 10.6771 7.66572 11.0653 8.01136C11.4536 8.35701 11.7543 8.7642 11.9673 9.23295C12.1851 9.7017 12.2964 10.2391 12.3011 10.8452C12.2964 11.7353 12.0691 12.5071 11.6193 13.1605C11.1742 13.8092 10.5303 14.3134 9.6875 14.6733C8.84943 15.0284 7.83854 15.206 6.65483 15.206C5.48059 15.206 4.45786 15.026 3.58665 14.6662C2.72017 14.3063 2.04309 13.7737 1.5554 13.0682C1.07244 12.358 0.819129 11.4796 0.795455 10.4332H3.77131C3.80445 10.9209 3.94413 11.3281 4.19034 11.6548C4.44129 11.9768 4.77509 12.2206 5.19176 12.3864C5.61316 12.5473 6.08902 12.6278 6.61932 12.6278C7.14015 12.6278 7.59233 12.5521 7.97585 12.4006C8.36411 12.2491 8.66477 12.0384 8.87784 11.7685C9.09091 11.4986 9.19744 11.1884 9.19744 10.8381C9.19744 10.5114 9.10038 10.2367 8.90625 10.0142C8.71686 9.79167 8.4375 9.60227 8.06818 9.44602C7.7036 9.28977 7.25616 9.14773 6.72585 9.01989L5.14205 8.62216C3.91572 8.32386 2.94744 7.85748 2.23722 7.22301C1.52699 6.58854 1.17424 5.7339 1.17898 4.65909C1.17424 3.77841 1.40862 3.009 1.8821 2.35085C2.36032 1.69271 3.0161 1.17898 3.84943 0.809659C4.68277 0.44034 5.62973 0.255681 6.69034 0.255681C7.76989 0.255681 8.71212 0.44034 9.51705 0.809659C10.3267 1.17898 10.9564 1.69271 11.4062 2.35085C11.8561 3.009 12.0881 3.77131 12.1023 4.63778H9.15483ZM17.4237 15.206C16.7276 15.206 16.1074 15.0852 15.5629 14.8438C15.0183 14.5975 14.5875 14.2353 14.2702 13.7571C13.9577 13.2741 13.8015 12.6728 13.8015 11.9531C13.8015 11.3471 13.9128 10.8381 14.1353 10.4261C14.3578 10.0142 14.6609 9.68277 15.0444 9.43182C15.4279 9.18087 15.8635 8.99148 16.3512 8.86364C16.8436 8.7358 17.3597 8.64583 17.8995 8.59375C18.534 8.52746 19.0453 8.46591 19.4336 8.40909C19.8219 8.34754 20.1036 8.25758 20.2788 8.1392C20.454 8.02083 20.5415 7.84564 20.5415 7.61364V7.57102C20.5415 7.12121 20.3995 6.7732 20.1154 6.52699C19.8361 6.28078 19.4383 6.15767 18.9222 6.15767C18.3777 6.15767 17.9445 6.27841 17.6225 6.51989C17.3005 6.75663 17.0875 7.05492 16.9833 7.41477L14.185 7.1875C14.3271 6.52462 14.6064 5.9517 15.0231 5.46875C15.4397 4.98106 15.9772 4.60701 16.6353 4.34659C17.2982 4.08144 18.0652 3.94886 18.9364 3.94886C19.5425 3.94886 20.1225 4.01989 20.6765 4.16193C21.2352 4.30398 21.73 4.52415 22.1609 4.82244C22.5965 5.12074 22.9397 5.50426 23.1907 5.97301C23.4416 6.43703 23.5671 6.99337 23.5671 7.64205V15H20.6978V13.4872H20.6126C20.4374 13.8281 20.203 14.1288 19.9094 14.3892C19.6159 14.6449 19.2631 14.8461 18.8512 14.9929C18.4393 15.1349 17.9634 15.206 17.4237 15.206ZM18.2901 13.1179C18.7352 13.1179 19.1282 13.0303 19.4691 12.8551C19.81 12.6752 20.0775 12.4337 20.2717 12.1307C20.4658 11.8277 20.5629 11.4844 20.5629 11.1009V9.94318C20.4682 10.0047 20.338 10.0616 20.1722 10.1136C20.0112 10.161 19.829 10.206 19.6254 10.2486C19.4218 10.2865 19.2182 10.322 19.0146 10.3551C18.811 10.3835 18.6263 10.4096 18.4606 10.4332C18.1055 10.4853 17.7953 10.5682 17.5302 10.6818C17.265 10.7955 17.0591 10.9493 16.9123 11.1435C16.7655 11.3329 16.6921 11.5696 16.6921 11.8537C16.6921 12.2656 16.8413 12.5805 17.1396 12.7983C17.4426 13.0114 17.8261 13.1179 18.2901 13.1179ZM25.9144 15V4.09091H28.7979V6.01562H28.9258C29.1531 5.37642 29.5318 4.87216 30.0621 4.50284C30.5924 4.13352 31.2269 3.94886 31.9656 3.94886C32.7137 3.94886 33.3505 4.13589 33.8761 4.50994C34.4016 4.87926 34.752 5.38116 34.9272 6.01562H35.0408C35.2634 5.39062 35.6658 4.8911 36.2482 4.51705C36.8353 4.13826 37.529 3.94886 38.3292 3.94886C39.3472 3.94886 40.1734 4.2732 40.8079 4.92188C41.4471 5.56581 41.7667 6.47964 41.7667 7.66335V15H38.7482V8.25994C38.7482 7.65388 38.5872 7.19934 38.2653 6.89631C37.9433 6.59328 37.5408 6.44176 37.0579 6.44176C36.5086 6.44176 36.0801 6.61695 35.7724 6.96733C35.4646 7.31297 35.3107 7.76989 35.3107 8.33807V15H32.3775V8.19602C32.3775 7.66098 32.2236 7.23485 31.9158 6.91761C31.6128 6.60038 31.2127 6.44176 30.7156 6.44176C30.3794 6.44176 30.0763 6.52699 29.8065 6.69744C29.5413 6.86316 29.3306 7.09754 29.1744 7.40057C29.0181 7.69886 28.94 8.04924 28.94 8.4517V15H25.9144ZM44.1566 19.0909V4.09091H47.1396V5.9233H47.2745C47.4071 5.62973 47.5988 5.33144 47.8498 5.02841C48.1055 4.72064 48.4369 4.46496 48.8441 4.26136C49.256 4.05303 49.7674 3.94886 50.3782 3.94886C51.1737 3.94886 51.9076 4.1572 52.5799 4.57386C53.2522 4.9858 53.7897 5.60843 54.1921 6.44176C54.5946 7.27036 54.7958 8.30966 54.7958 9.55966C54.7958 10.7765 54.5993 11.804 54.2063 12.642C53.8181 13.4754 53.2878 14.1075 52.6154 14.5384C51.9478 14.9645 51.1997 15.1776 50.3711 15.1776C49.784 15.1776 49.2844 15.0805 48.8725 14.8864C48.4653 14.6922 48.1315 14.4484 47.8711 14.1548C47.6107 13.8565 47.4118 13.5559 47.2745 13.2528H47.1822V19.0909H44.1566ZM47.1183 9.54545C47.1183 10.1941 47.2082 10.7599 47.3881 11.2429C47.5681 11.7259 47.8285 12.1023 48.1694 12.3722C48.5103 12.6373 48.9246 12.7699 49.4123 12.7699C49.9047 12.7699 50.3214 12.6349 50.6623 12.3651C51.0032 12.0904 51.2612 11.7116 51.4364 11.2287C51.6164 10.741 51.7063 10.1799 51.7063 9.54545C51.7063 8.91572 51.6187 8.36174 51.4435 7.88352C51.2683 7.4053 51.0103 7.03125 50.6694 6.76136C50.3285 6.49148 49.9094 6.35653 49.4123 6.35653C48.9199 6.35653 48.5032 6.48674 48.1623 6.74716C47.8261 7.00758 47.5681 7.37689 47.3881 7.85511C47.2082 8.33333 47.1183 8.89678 47.1183 9.54545ZM59.8384 0.454545V15H56.8129V0.454545H59.8384ZM67.2337 15.2131C66.1115 15.2131 65.1456 14.9858 64.3359 14.5312C63.531 14.072 62.9107 13.4233 62.4751 12.5852C62.0395 11.7424 61.8217 10.7457 61.8217 9.59517C61.8217 8.47301 62.0395 7.48816 62.4751 6.64062C62.9107 5.79309 63.5239 5.13258 64.3146 4.65909C65.1101 4.18561 66.0429 3.94886 67.1129 3.94886C67.8326 3.94886 68.5026 4.06487 69.1229 4.29688C69.7479 4.52415 70.2924 4.86742 70.7564 5.3267C71.2251 5.78598 71.5897 6.36364 71.8501 7.05966C72.1106 7.75095 72.2408 8.56061 72.2408 9.48864V10.3196H63.0291V8.4446H69.3928C69.3928 8.009 69.2981 7.62311 69.1087 7.28693C68.9193 6.95076 68.6565 6.68797 68.3203 6.49858C67.9889 6.30445 67.603 6.20739 67.1626 6.20739C66.7034 6.20739 66.2962 6.31392 65.9411 6.52699C65.5907 6.73532 65.3161 7.01705 65.1172 7.37216C64.9183 7.72254 64.8165 8.11316 64.8118 8.54403V10.3267C64.8118 10.8665 64.9112 11.3329 65.1101 11.7259C65.3137 12.1188 65.6001 12.4219 65.9695 12.6349C66.3388 12.848 66.7768 12.9545 67.2834 12.9545C67.6196 12.9545 67.9273 12.9072 68.2067 12.8125C68.486 12.7178 68.7251 12.5758 68.924 12.3864C69.1229 12.197 69.2744 11.965 69.3786 11.6903L72.1768 11.875C72.0348 12.5473 71.7436 13.1345 71.3033 13.6364C70.8677 14.1335 70.3042 14.5218 69.6129 14.8011C68.9264 15.0758 68.1333 15.2131 67.2337 15.2131ZM81.408 15H78.1126L83.1339 0.454545H87.0969L92.1112 15H88.8157L85.1722 3.77841H85.0586L81.408 15ZM81.2021 9.28267H88.9862V11.6832H81.2021V9.28267ZM93.805 19.0909V4.09091H96.788V5.9233H96.9229C97.0555 5.62973 97.2473 5.33144 97.4982 5.02841C97.7539 4.72064 98.0853 4.46496 98.4925 4.26136C98.9045 4.05303 99.4158 3.94886 100.027 3.94886C100.822 3.94886 101.556 4.1572 102.228 4.57386C102.901 4.9858 103.438 5.60843 103.841 6.44176C104.243 7.27036 104.444 8.30966 104.444 9.55966C104.444 10.7765 104.248 11.804 103.855 12.642C103.467 13.4754 102.936 14.1075 102.264 14.5384C101.596 14.9645 100.848 15.1776 100.02 15.1776C99.4324 15.1776 98.9329 15.0805 98.521 14.8864C98.1138 14.6922 97.7799 14.4484 97.5195 14.1548C97.2591 13.8565 97.0603 13.5559 96.9229 13.2528H96.8306V19.0909H93.805ZM96.7667 9.54545C96.7667 10.1941 96.8567 10.7599 97.0366 11.2429C97.2165 11.7259 97.4769 12.1023 97.8178 12.3722C98.1587 12.6373 98.573 12.7699 99.0607 12.7699C99.5531 12.7699 99.9698 12.6349 100.311 12.3651C100.652 12.0904 100.91 11.7116 101.085 11.2287C101.265 10.741 101.355 10.1799 101.355 9.54545C101.355 8.91572 101.267 8.36174 101.092 7.88352C100.917 7.4053 100.659 7.03125 100.318 6.76136C99.9769 6.49148 99.5579 6.35653 99.0607 6.35653C98.5683 6.35653 98.1516 6.48674 97.8107 6.74716C97.4746 7.00758 97.2165 7.37689 97.0366 7.85511C96.8567 8.33333 96.7667 8.89678 96.7667 9.54545ZM106.461 19.0909V4.09091H109.444V5.9233H109.579C109.712 5.62973 109.904 5.33144 110.154 5.02841C110.41 4.72064 110.742 4.46496 111.149 4.26136C111.561 4.05303 112.072 3.94886 112.683 3.94886C113.478 3.94886 114.212 4.1572 114.885 4.57386C115.557 4.9858 116.094 5.60843 116.497 6.44176C116.899 7.27036 117.1 8.30966 117.1 9.55966C117.1 10.7765 116.904 11.804 116.511 12.642C116.123 13.4754 115.592 14.1075 114.92 14.5384C114.252 14.9645 113.504 15.1776 112.676 15.1776C112.089 15.1776 111.589 15.0805 111.177 14.8864C110.77 14.6922 110.436 14.4484 110.176 14.1548C109.915 13.8565 109.717 13.5559 109.579 13.2528H109.487V19.0909H106.461ZM109.423 9.54545C109.423 10.1941 109.513 10.7599 109.693 11.2429C109.873 11.7259 110.133 12.1023 110.474 12.3722C110.815 12.6373 111.229 12.7699 111.717 12.7699C112.209 12.7699 112.626 12.6349 112.967 12.3651C113.308 12.0904 113.566 11.7116 113.741 11.2287C113.921 10.741 114.011 10.1799 114.011 9.54545C114.011 8.91572 113.923 8.36174 113.748 7.88352C113.573 7.4053 113.315 7.03125 112.974 6.76136C112.633 6.49148 112.214 6.35653 111.717 6.35653C111.225 6.35653 110.808 6.48674 110.467 6.74716C110.131 7.00758 109.873 7.37689 109.693 7.85511C109.513 8.33333 109.423 8.89678 109.423 9.54545Z" fill="white"/>
</svg>
