<svg width="820" height="615" viewBox="0 0 820 615" fill="none" xmlns="http://www.w3.org/2000/svg">
    <path fill-rule="evenodd" clip-rule="evenodd"
          d="M820 0H0V615H820V0ZM410.5 482C495.276 482 564 391.785 564 280.5C564 169.215 495.276 79 410.5 79C325.724 79 257 169.215 257 280.5C257 391.785 325.724 482 410.5 482Z"
          fill="#18191E" fill-opacity="0.4"/>
    <g opacity="0.5">
        <path fill-rule="evenodd" clip-rule="evenodd"
              d="M563.989 282.973L561.645 282.949C561.653 282.134 561.656 281.318 561.656 280.5C561.656 279.682 561.653 278.866 561.645 278.051L563.989 278.027C563.996 278.85 564 279.674 564 280.5C564 281.325 563.996 282.15 563.989 282.973ZM563.898 273.103L561.556 273.173C561.511 271.545 561.452 269.922 561.377 268.304L563.718 268.186C563.793 269.819 563.853 271.459 563.898 273.103ZM563.446 263.266L561.108 263.432C561.003 261.808 560.884 260.189 560.75 258.576L563.084 258.362C563.22 259.991 563.341 261.626 563.446 263.266ZM562.629 253.456L560.299 253.718C560.134 252.099 559.954 250.488 559.759 248.882L562.084 248.572C562.28 250.194 562.462 251.822 562.629 253.456ZM561.444 243.687L559.126 244.046C558.899 242.436 558.658 240.834 558.403 239.238L560.714 238.831C560.972 240.443 561.216 242.061 561.444 243.687ZM559.888 233.976L557.585 234.432C557.298 232.833 556.995 231.243 556.678 229.66L558.972 229.155C559.292 230.754 559.597 232.361 559.888 233.976ZM557.959 224.339L555.676 224.893C555.326 223.308 554.962 221.732 554.583 220.164L556.855 219.561C557.238 221.145 557.606 222.738 557.959 224.339ZM555.654 214.793L553.394 215.445C552.982 213.877 552.556 212.318 552.116 210.768L554.361 210.066C554.807 211.633 555.238 213.208 555.654 214.793ZM552.971 205.357L550.74 206.108C550.265 204.559 549.776 203.02 549.273 201.491L551.489 200.69C551.997 202.236 552.491 203.791 552.971 205.357ZM549.908 196.048L547.71 196.899C547.173 195.373 546.621 193.857 546.055 192.352L548.235 191.451C548.807 192.973 549.365 194.505 549.908 196.048ZM546.465 186.888L544.304 187.839C543.703 186.339 543.088 184.849 542.459 183.372L544.599 182.37C545.235 183.865 545.857 185.371 546.465 186.888ZM542.638 177.897L540.52 178.949C539.855 177.477 539.177 176.018 538.485 174.571L540.579 173.469C541.279 174.933 541.966 176.409 542.638 177.897ZM538.427 169.098L536.357 170.25C535.629 168.811 534.886 167.386 534.131 165.974L536.174 164.771C536.939 166.2 537.69 167.642 538.427 169.098ZM533.831 160.514L531.815 161.767C531.023 160.366 530.216 158.978 529.397 157.605L531.383 156.302C532.213 157.691 533.029 159.095 533.831 160.514ZM528.849 152.169L526.893 153.524C526.037 152.164 525.167 150.82 524.284 149.491L526.206 148.086C527.101 149.432 527.982 150.793 528.849 152.169ZM523.477 144.087L521.588 145.543C520.669 144.232 519.737 142.938 518.792 141.66L520.644 140.154C521.602 141.448 522.546 142.76 523.477 144.087ZM517.719 136.304L515.905 137.86C514.925 136.603 513.931 135.364 512.925 134.142L514.699 132.536C515.718 133.774 516.725 135.03 517.719 136.304ZM511.579 128.851L509.848 130.507C508.806 129.309 507.752 128.13 506.685 126.97L508.373 125.265C509.454 126.441 510.523 127.637 511.579 128.851ZM505.06 121.762L503.42 123.517C502.316 122.383 501.2 121.268 500.073 120.174L501.665 118.37C502.809 119.481 503.941 120.612 505.06 121.762ZM498.169 115.076L496.628 116.927C495.463 115.861 494.287 114.817 493.098 113.794L494.586 111.895C495.792 112.933 496.987 113.994 498.169 115.076ZM490.914 108.83L489.483 110.775C488.259 109.785 487.023 108.817 485.776 107.872L487.149 105.881C488.416 106.841 489.671 107.824 490.914 108.83ZM483.306 103.063L481.993 105.099C480.713 104.192 479.422 103.308 478.12 102.449L479.369 100.369C480.692 101.243 482.004 102.141 483.306 103.063ZM475.356 97.8159L474.173 99.9375C472.842 99.1219 471.501 98.3312 470.15 97.5657L471.263 95.4037C472.638 96.1823 474.002 96.9866 475.356 97.8159ZM467.093 93.1368L466.05 95.3375C464.672 94.6194 463.283 93.9273 461.886 93.2617L462.855 91.0243C464.277 91.7018 465.69 92.4061 467.093 93.1368ZM458.544 89.0667L457.651 91.3385C456.229 90.7239 454.798 90.1363 453.357 89.5763L454.172 87.2723C455.639 87.8426 457.096 88.4409 458.544 89.0667ZM449.741 85.6443L449.006 87.9778C447.547 87.4728 446.08 86.9959 444.604 86.5475L445.256 84.1872C446.76 84.6441 448.255 85.1299 449.741 85.6443ZM440.722 82.9045L440.154 85.2885C438.665 84.8983 437.169 84.5369 435.665 84.2048L436.148 81.8002C437.68 82.1387 439.205 82.5069 440.722 82.9045ZM431.537 80.8766L431.14 83.2985C429.628 83.0265 428.109 82.7839 426.583 82.5712L426.892 80.1353C428.447 80.3521 429.995 80.5993 431.537 80.8766ZM422.231 79.5797L422.011 82.0261C420.484 81.8746 418.951 81.7531 417.412 81.6618L417.545 79.2084C419.113 79.3014 420.675 79.4253 422.231 79.5797ZM412.857 79.0233L412.813 81.4801C412.043 81.4649 411.272 81.4573 410.5 81.4573C409.728 81.4573 408.957 81.4649 408.187 81.4802L408.143 79.0233C408.927 79.0078 409.713 79 410.5 79C411.287 79 412.073 79.0078 412.857 79.0233ZM403.455 79.2084L403.587 81.6618C402.049 81.7531 400.516 81.8747 398.989 82.0261L398.769 79.5797C400.324 79.4254 401.887 79.3014 403.455 79.2084ZM394.108 80.1354L394.417 82.5713C392.891 82.7839 391.372 83.0265 389.859 83.2986L389.463 80.8767C391.004 80.5994 392.553 80.3521 394.108 80.1354ZM384.852 81.8003L385.335 84.2048C383.831 84.5369 382.334 84.8983 380.846 85.2885L380.277 82.9046C381.794 82.507 383.319 82.1387 384.852 81.8003ZM375.743 84.1873L376.396 86.5475C374.92 86.9959 373.452 87.4728 371.993 87.9778L371.259 85.6443C372.745 85.13 374.24 84.6441 375.743 84.1873ZM366.827 87.2724L367.642 89.5764C366.202 90.1364 364.771 90.7239 363.349 91.3386L362.456 89.0667C363.904 88.441 365.361 87.8427 366.827 87.2724ZM358.145 91.0244L359.114 93.2617C357.716 93.9274 356.328 94.6195 354.95 95.3376L353.907 93.1369C355.31 92.4062 356.722 91.7019 358.145 91.0244ZM349.736 95.4038L350.85 97.5658C349.499 98.3312 348.158 99.122 346.827 99.9376L345.644 97.816C346.998 96.9866 348.362 96.1824 349.736 95.4038ZM341.631 100.37L342.88 102.449C341.578 103.308 340.287 104.192 339.006 105.099L337.694 103.063C338.995 102.141 340.308 101.243 341.631 100.37ZM333.851 105.881L335.224 107.872C333.977 108.817 332.741 109.785 331.517 110.775L330.085 108.83C331.329 107.824 332.584 106.841 333.851 105.881ZM326.414 111.895L327.901 113.794C326.713 114.817 325.536 115.862 324.372 116.927L322.831 115.076C324.013 113.994 325.208 112.934 326.414 111.895ZM319.335 118.37L320.927 120.174C319.8 121.268 318.684 122.383 317.58 123.517L315.94 121.762C317.059 120.612 318.191 119.481 319.335 118.37ZM312.627 125.265L314.314 126.971C313.248 128.13 312.194 129.309 311.152 130.507L309.421 128.851C310.477 127.637 311.546 126.441 312.627 125.265ZM306.301 132.536L308.075 134.142C307.069 135.364 306.075 136.603 305.094 137.86L303.281 136.304C304.275 135.03 305.282 133.774 306.301 132.536ZM300.356 140.154L302.208 141.66C301.263 142.938 300.331 144.232 299.412 145.543L297.523 144.087C298.454 142.76 299.398 141.449 300.356 140.154ZM294.794 148.086L296.716 149.491C295.833 150.82 294.963 152.164 294.107 153.524L292.151 152.17C293.018 150.793 293.899 149.432 294.794 148.086ZM289.617 156.302L291.603 157.606C290.784 158.978 289.977 160.366 289.185 161.767L287.169 160.514C287.971 159.095 288.787 157.691 289.617 156.302ZM284.826 164.772L286.869 165.974C286.114 167.386 285.371 168.812 284.643 170.25L282.573 169.098C283.31 167.642 284.061 166.2 284.826 164.772ZM280.421 173.469L282.515 174.571C281.823 176.018 281.145 177.477 280.48 178.949L278.362 177.897C279.034 176.409 279.721 174.933 280.421 173.469ZM276.401 182.37L278.541 183.372C277.912 184.849 277.297 186.339 276.696 187.839L274.535 186.888C275.143 185.371 275.765 183.865 276.401 182.37ZM272.765 191.451L274.945 192.352C274.379 193.857 273.827 195.373 273.29 196.9L271.092 196.048C271.635 194.505 272.193 192.973 272.765 191.451ZM269.511 200.69L271.727 201.491C271.224 203.02 270.735 204.559 270.26 206.108L268.029 205.357C268.509 203.791 269.003 202.236 269.511 200.69ZM266.638 210.066L268.884 210.768C268.444 212.318 268.017 213.878 267.606 215.446L265.346 214.793C265.762 213.209 266.193 211.633 266.638 210.066ZM264.145 219.561L266.417 220.164C266.038 221.732 265.674 223.308 265.324 224.893L263.041 224.339C263.394 222.738 263.762 221.145 264.145 219.561ZM262.028 229.155L264.322 229.66C264.005 231.243 263.702 232.834 263.415 234.432L261.112 233.976C261.402 232.361 261.708 230.754 262.028 229.155ZM260.286 238.831L262.597 239.238C262.342 240.834 262.101 242.436 261.874 244.046L259.556 243.687C259.784 242.062 260.028 240.443 260.286 238.831ZM258.916 248.572L261.241 248.882C261.046 250.488 260.866 252.1 260.701 253.718L258.371 253.456C258.538 251.822 258.72 250.194 258.916 248.572ZM257.916 258.363L260.25 258.576C260.116 260.189 259.997 261.808 259.892 263.432L257.554 263.266C257.659 261.626 257.78 259.991 257.916 258.363ZM257.282 268.186L259.623 268.304C259.548 269.922 259.489 271.545 259.444 273.174L257.102 273.103C257.147 271.459 257.207 269.82 257.282 268.186ZM257.011 278.027C257.004 278.85 257 279.675 257 280.5C257 281.326 257.004 282.15 257.011 282.973L259.355 282.949C259.347 282.134 259.344 281.318 259.344 280.5C259.344 279.682 259.347 278.866 259.355 278.051L257.011 278.027ZM257.102 287.897L259.444 287.827C259.489 289.455 259.548 291.078 259.623 292.696L257.282 292.814C257.207 291.181 257.147 289.541 257.102 287.897ZM257.554 297.734L259.892 297.568C259.997 299.192 260.116 300.811 260.25 302.424L257.916 302.638C257.78 301.009 257.659 299.374 257.554 297.734ZM258.371 307.544L260.701 307.282C260.866 308.901 261.046 310.512 261.241 312.118L258.916 312.428C258.72 310.806 258.538 309.178 258.371 307.544ZM259.556 317.313L261.874 316.954C262.101 318.564 262.342 320.166 262.597 321.762L260.286 322.169C260.028 320.557 259.784 318.939 259.556 317.313ZM261.112 327.024L263.415 326.568C263.702 328.167 264.005 329.757 264.322 331.34L262.028 331.845C261.708 330.246 261.403 328.639 261.112 327.024ZM263.041 336.661L265.324 336.107C265.674 337.692 266.038 339.268 266.417 340.836L264.145 341.439C263.762 339.855 263.394 338.262 263.041 336.661ZM265.346 346.207L267.606 345.555C268.017 347.123 268.444 348.682 268.884 350.232L266.639 350.934C266.193 349.367 265.762 347.792 265.346 346.207ZM268.029 355.643L270.26 354.892C270.735 356.441 271.224 357.98 271.727 359.509L269.511 360.31C269.003 358.764 268.509 357.209 268.029 355.643ZM271.092 364.952L273.29 364.101C273.827 365.627 274.379 367.143 274.945 368.648L272.765 369.549C272.193 368.027 271.635 366.495 271.092 364.952ZM274.535 374.112L276.696 373.161C277.297 374.661 277.912 376.151 278.541 377.628L276.401 378.63C275.765 377.135 275.143 375.629 274.535 374.112ZM278.362 383.103L280.48 382.051C281.145 383.523 281.823 384.982 282.515 386.429L280.421 387.531C279.721 386.067 279.034 384.591 278.362 383.103ZM282.573 391.902L284.643 390.75C285.371 392.189 286.114 393.614 286.869 395.026L284.826 396.229C284.061 394.8 283.31 393.358 282.573 391.902ZM287.169 400.486L289.185 399.233C289.977 400.634 290.784 402.022 291.603 403.395L289.617 404.698C288.787 403.309 287.971 401.905 287.169 400.486ZM292.151 408.831C293.018 410.207 293.899 411.568 294.794 412.914L296.716 411.509C295.833 410.18 294.963 408.836 294.107 407.476L292.151 408.831ZM297.523 416.913L299.412 415.457C300.331 416.768 301.263 418.062 302.208 419.34L300.356 420.846C299.398 419.552 298.454 418.24 297.523 416.913ZM303.281 424.696L305.095 423.14C306.075 424.397 307.069 425.636 308.075 426.858L306.301 428.464C305.282 427.226 304.275 425.97 303.281 424.696ZM309.421 432.149L311.152 430.493C312.194 431.691 313.248 432.87 314.315 434.03L312.627 435.735C311.546 434.559 310.477 433.363 309.421 432.149ZM315.94 439.238L317.58 437.483C318.684 438.617 319.8 439.732 320.927 440.826L319.335 442.63C318.191 441.519 317.059 440.388 315.94 439.238ZM322.831 445.924C324.013 447.006 325.208 448.067 326.414 449.105L327.902 447.206C326.713 446.183 325.537 445.139 324.372 444.073L322.831 445.924ZM330.086 452.17C331.329 453.176 332.584 454.159 333.851 455.119L335.224 453.128C333.977 452.183 332.741 451.215 331.517 450.225L330.086 452.17ZM337.694 457.937L339.007 455.901C340.287 456.808 341.578 457.692 342.88 458.551L341.631 460.63C340.308 459.757 338.996 458.859 337.694 457.937ZM345.644 463.184L346.827 461.062C348.158 461.878 349.499 462.669 350.85 463.434L349.737 465.596C348.362 464.818 346.998 464.013 345.644 463.184ZM353.907 467.863C355.31 468.594 356.723 469.298 358.145 469.976L359.114 467.738C357.717 467.073 356.328 466.381 354.95 465.663L353.907 467.863ZM362.456 471.933L363.349 469.661C364.771 470.276 366.202 470.864 367.643 471.424L366.828 473.728C365.361 473.157 363.904 472.559 362.456 471.933ZM371.259 475.356L371.994 473.022C373.453 473.527 374.92 474.004 376.396 474.453L375.744 476.813C374.24 476.356 372.745 475.87 371.259 475.356ZM380.278 478.095L380.846 475.712C382.335 476.102 383.831 476.463 385.335 476.795L384.852 479.2C383.32 478.861 381.794 478.493 380.278 478.095ZM389.463 480.123C391.005 480.401 392.553 480.648 394.108 480.865L394.417 478.429C392.891 478.216 391.372 477.974 389.86 477.701L389.463 480.123ZM398.769 481.42L398.989 478.974C400.516 479.125 402.049 479.247 403.588 479.338L403.455 481.792C401.887 481.699 400.325 481.575 398.769 481.42ZM408.143 481.977L408.187 479.52C408.957 479.535 409.728 479.543 410.5 479.543C411.272 479.543 412.043 479.535 412.813 479.52L412.857 481.977C412.073 481.992 411.287 482 410.5 482C409.713 482 408.927 481.992 408.143 481.977ZM417.545 481.792L417.412 479.338C418.951 479.247 420.484 479.125 422.011 478.974L422.231 481.42C420.676 481.575 419.113 481.699 417.545 481.792ZM426.892 480.865L426.583 478.429C428.109 478.216 429.628 477.973 431.141 477.701L431.537 480.123C429.996 480.401 428.447 480.648 426.892 480.865ZM436.148 479.2L435.665 476.795C437.169 476.463 438.666 476.102 440.154 475.711L440.723 478.095C439.206 478.493 437.681 478.861 436.148 479.2ZM445.257 476.813L444.604 474.453C446.08 474.004 447.548 473.527 449.007 473.022L449.741 475.356C448.255 475.87 446.76 476.356 445.257 476.813ZM454.173 473.728L453.358 471.424C454.798 470.864 456.229 470.276 457.651 469.661L458.544 471.933C457.096 472.559 455.639 473.157 454.173 473.728ZM462.855 469.976L461.886 467.738C463.284 467.073 464.672 466.381 466.05 465.662L467.093 467.863C465.69 468.594 464.278 469.298 462.855 469.976ZM471.264 465.596C472.638 464.818 474.002 464.013 475.356 463.184L474.173 461.062C472.842 461.878 471.501 462.669 470.15 463.434L471.264 465.596ZM479.369 460.63L478.12 458.551C479.422 457.692 480.713 456.808 481.993 455.901L483.306 457.937C482.005 458.859 480.692 459.757 479.369 460.63ZM487.149 455.119L485.776 453.128C487.023 452.183 488.259 451.215 489.483 450.225L490.914 452.17C489.671 453.176 488.416 454.159 487.149 455.119ZM494.586 449.105L493.099 447.206C494.287 446.183 495.464 445.138 496.628 444.073L498.169 445.924C496.987 447.006 495.792 448.066 494.586 449.105ZM501.665 442.63L500.073 440.826C501.2 439.732 502.316 438.617 503.42 437.483L505.06 439.238C503.941 440.388 502.809 441.519 501.665 442.63ZM508.373 435.735L506.685 434.029C507.752 432.87 508.806 431.691 509.848 430.493L511.579 432.149C510.523 433.363 509.454 434.559 508.373 435.735ZM514.699 428.464L512.925 426.858C513.931 425.636 514.925 424.397 515.905 423.14L517.719 424.696C516.725 425.97 515.718 427.226 514.699 428.464ZM520.644 420.846L518.792 419.34C519.737 418.062 520.669 416.768 521.588 415.457L523.477 416.913C522.546 418.24 521.602 419.551 520.644 420.846ZM526.206 412.914L524.284 411.509C525.167 410.18 526.037 408.836 526.893 407.476L528.849 408.83C527.982 410.207 527.101 411.568 526.206 412.914ZM531.383 404.698L529.397 403.394C530.216 402.022 531.023 400.634 531.815 399.233L533.831 400.486C533.029 401.905 532.213 403.309 531.383 404.698ZM536.174 396.228L534.131 395.026C534.886 393.614 535.629 392.188 536.357 390.75L538.427 391.902C537.69 393.358 536.939 394.8 536.174 396.228ZM540.579 387.531L538.485 386.429C539.177 384.982 539.855 383.523 540.52 382.051L542.638 383.103C541.966 384.591 541.279 386.067 540.579 387.531ZM544.599 378.63L542.459 377.628C543.088 376.151 543.703 374.661 544.304 373.161L546.465 374.112C545.857 375.629 545.235 377.135 544.599 378.63ZM548.235 369.549L546.055 368.648C546.621 367.143 547.173 365.627 547.71 364.1L549.908 364.952C549.365 366.495 548.807 368.027 548.235 369.549ZM551.489 360.31L549.273 359.509C549.776 357.98 550.265 356.441 550.74 354.892L552.971 355.643C552.491 357.209 551.997 358.764 551.489 360.31ZM554.362 350.934L552.116 350.232C552.556 348.682 552.983 347.122 553.394 345.554L555.654 346.207C555.238 347.791 554.807 349.367 554.362 350.934ZM556.855 341.439L554.583 340.836C554.962 339.268 555.326 337.692 555.676 336.107L557.959 336.661C557.606 338.262 557.238 339.855 556.855 341.439ZM558.972 331.845L556.678 331.34C556.995 329.757 557.298 328.166 557.585 326.568L559.888 327.024C559.598 328.638 559.292 330.246 558.972 331.845ZM560.714 322.169L558.403 321.762C558.658 320.166 558.899 318.564 559.126 316.954L561.444 317.313C561.216 318.938 560.972 320.557 560.714 322.169ZM562.084 312.428L559.759 312.118C559.954 310.512 560.134 308.9 560.299 307.282L562.629 307.544C562.462 309.178 562.28 310.806 562.084 312.428ZM563.084 302.637C563.22 301.009 563.341 299.374 563.446 297.734L561.108 297.568C561.003 299.192 560.884 300.811 560.75 302.424L563.084 302.637ZM563.718 292.814L561.377 292.696C561.452 291.078 561.511 289.455 561.556 287.826L563.898 287.897C563.853 289.541 563.793 291.18 563.718 292.814Z"
              fill="white"/>
        <path fill-rule="evenodd" clip-rule="evenodd"
              d="M409.328 87.5929V85.1433H411.672V87.5929H409.328ZM409.328 97.3915V92.4922H411.672V97.3915H409.328ZM409.328 107.19V102.291L411.672 102.291V107.19H409.328ZM409.328 116.989V112.089H411.672V116.989H409.328ZM409.328 126.787V121.888H411.672V126.787H409.328ZM409.328 136.586V131.686H411.672V136.586H409.328ZM409.328 146.384V141.485H411.672V146.384H409.328ZM409.328 156.183V151.284H411.672V156.183H409.328ZM409.328 165.981V161.082H411.672V165.981H409.328ZM409.328 175.78V170.881H411.672V175.78H409.328ZM409.328 185.578V180.679H411.672V185.578H409.328ZM409.328 195.377V190.478H411.672V195.377H409.328ZM409.328 205.176V200.276H411.672V205.176H409.328ZM409.328 214.974V210.075H411.672V214.974H409.328ZM409.328 224.773V219.873H411.672V224.773H409.328ZM409.328 234.571V229.672H411.672V234.571H409.328ZM409.328 244.37V239.471H411.672V244.37H409.328ZM409.328 254.168V249.269H411.672V254.168H409.328ZM409.328 263.967V259.068H411.672V263.967H409.328ZM409.328 273.766V268.866H411.672V273.766H409.328ZM409.328 283.564V278.665H411.672V283.564H409.328ZM409.328 293.363V288.463H411.672V293.363H409.328ZM409.328 303.161L409.328 298.262H411.672L411.672 303.161H409.328ZM409.328 312.96V308.06H411.672V312.96H409.328ZM409.328 322.758V317.859H411.672V322.758H409.328ZM409.328 332.557V327.658H411.672V332.557H409.328ZM409.328 342.355V337.456H411.672V342.355H409.328ZM409.328 352.154V347.255H411.672V352.154H409.328ZM409.328 361.953V357.053H411.672V361.953H409.328ZM409.328 371.751V366.852H411.672V371.751H409.328ZM409.328 381.55V376.65H411.672V381.55H409.328ZM409.328 391.348V386.449H411.672V391.348H409.328ZM409.328 401.147V396.248H411.672V401.147H409.328ZM409.328 410.945V406.046H411.672V410.945H409.328ZM409.328 420.744V415.845H411.672V420.744H409.328ZM409.328 430.542V425.643H411.672V430.542H409.328ZM409.328 440.341V435.442H411.672V440.341H409.328ZM409.328 450.139V445.24H411.672V450.139H409.328ZM409.328 459.938V455.039H411.672V459.938H409.328ZM409.328 469.736V464.837H411.672V469.736H409.328ZM409.328 477.085V474.636H411.672V477.085H409.328Z"
              fill="white"/>
        <path fill-rule="evenodd" clip-rule="evenodd"
              d="M556.997 269.442H559.313V271.899H556.997V269.442ZM547.733 269.442H552.365V271.899H547.733V269.442ZM538.469 269.442H543.101V271.899H538.469V269.442ZM529.204 269.442H533.836V271.899H529.204V269.442ZM519.94 269.442H524.572V271.899H519.94V269.442ZM510.676 269.442H515.308V271.899H510.676V269.442ZM501.412 269.442H506.044V271.899H501.412V269.442ZM492.148 269.442H496.78V271.899H492.148V269.442ZM482.883 269.442H487.515V271.899H482.883V269.442ZM473.619 269.442H478.251V271.899H473.619V269.442ZM464.355 269.442H468.987V271.899H464.355V269.442ZM455.091 269.442H459.723V271.899H455.091V269.442ZM445.827 269.442H450.459V271.899H445.827V269.442ZM436.562 269.442H441.195V271.899H436.562V269.442ZM427.298 269.442H431.93V271.899H427.298V269.442ZM418.034 269.442H422.666V271.899H418.034V269.442ZM408.77 269.442H413.402V271.899H408.77V269.442ZM399.506 269.442H404.138V271.899H399.506V269.442ZM390.241 269.442H394.874V271.899H390.241V269.442ZM380.977 269.442H385.609V271.899H380.977V269.442ZM371.713 269.442H376.345V271.899H371.713V269.442ZM362.449 269.442H367.081V271.899H362.449V269.442ZM353.185 269.442H357.817V271.899H353.185V269.442ZM343.92 269.442H348.553V271.899H343.92V269.442ZM334.656 269.442H339.288V271.899H334.656V269.442ZM325.392 269.442H330.024V271.899H325.392V269.442ZM316.128 269.442H320.76V271.899H316.128V269.442ZM306.864 269.442H311.496V271.899H306.864V269.442ZM297.599 269.442H302.232V271.899H297.599V269.442ZM288.335 269.442H292.967V271.899H288.335V269.442ZM279.071 269.442H283.703V271.899H279.071V269.442ZM269.807 269.442H274.439V271.899H269.807V269.442ZM262.859 269.442H265.175V271.899H262.859V269.442Z"
              fill="white"/>
    </g>
</svg>
