<svg width="35" height="35" viewBox="0 0 35 35" fill="none" xmlns="http://www.w3.org/2000/svg">
    <path d="M14.4238 3.28125L14.2529 4.16992L13.6035 7.41699C12.561 7.82715 11.6211 8.40393 10.7666 9.0918L7.58789 7.99805L6.7334 7.72461L6.28906 8.51074L4.10156 12.2705L3.65723 13.0566L4.30664 13.6377L6.76758 15.791C6.67786 16.3507 6.5625 16.9104 6.5625 17.5C6.5625 18.0896 6.67786 18.6493 6.76758 19.209L4.30664 21.3623L3.65723 21.9434L4.10156 22.7295L6.28906 26.4893L6.7334 27.2754L7.58789 27.002L10.7666 25.9082C11.6211 26.5961 12.561 27.1729 13.6035 27.583L14.2529 30.8301L14.4238 31.7188H20.5762L20.7471 30.8301L21.3965 27.583C22.439 27.1729 23.3789 26.5961 24.2334 25.9082L27.4121 27.002L28.2666 27.2754L28.7109 26.4893L30.8984 22.7295L31.3428 21.9434L30.6934 21.3623L28.2324 19.209C28.3221 18.6493 28.4375 18.0896 28.4375 17.5C28.4375 16.9104 28.3221 16.3507 28.2324 15.791L30.6934 13.6377L31.3428 13.0566L30.8984 12.2705L28.7109 8.51074L28.2666 7.72461L27.4121 7.99805L24.2334 9.0918C23.3789 8.40393 22.439 7.82715 21.3965 7.41699L20.7471 4.16992L20.5762 3.28125H14.4238ZM16.2012 5.46875H18.7988L19.3457 8.30566L19.4824 8.95508L20.0977 9.16016C21.3409 9.54895 22.4689 10.2069 23.4131 11.0742L23.8916 11.5186L24.5068 11.3135L27.2754 10.3564L28.5742 12.5781L26.3867 14.5264L25.874 14.9365L26.0449 15.5859C26.1859 16.2097 26.25 16.8463 26.25 17.5C26.25 18.1537 26.1859 18.7903 26.0449 19.4141L25.9082 20.0635L26.3867 20.4736L28.5742 22.4219L27.2754 24.6436L24.5068 23.6865L23.8916 23.4814L23.4131 23.9258C22.4689 24.7931 21.3409 25.451 20.0977 25.8398L19.4824 26.0449L19.3457 26.6943L18.7988 29.5312H16.2012L15.6543 26.6943L15.5176 26.0449L14.9023 25.8398C13.6591 25.451 12.5311 24.7931 11.5869 23.9258L11.1084 23.4814L10.4932 23.6865L7.72461 24.6436L6.42578 22.4219L8.61328 20.4736L9.12598 20.0635L8.95508 19.4141C8.81409 18.7903 8.75 18.1537 8.75 17.5C8.75 16.8463 8.81409 16.2097 8.95508 15.5859L9.12598 14.9365L8.61328 14.5264L6.42578 12.5781L7.72461 10.3564L10.4932 11.3135L11.1084 11.5186L11.5869 11.0742C12.5311 10.2069 13.6591 9.54895 14.9023 9.16016L15.5176 8.95508L15.6543 8.30566L16.2012 5.46875ZM17.5 12.0312C14.4922 12.0312 12.0312 14.4922 12.0312 17.5C12.0312 20.5078 14.4922 22.9688 17.5 22.9688C20.5078 22.9688 22.9688 20.5078 22.9688 17.5C22.9688 14.4922 20.5078 12.0312 17.5 12.0312ZM17.5 14.2188C19.3243 14.2188 20.7812 15.6757 20.7812 17.5C20.7812 19.3243 19.3243 20.7812 17.5 20.7812C15.6757 20.7812 14.2188 19.3243 14.2188 17.5C14.2188 15.6757 15.6757 14.2188 17.5 14.2188Z" fill="#8E8E8E"/>
</svg>
