<svg width="20" height="11" viewBox="0 0 20 11" fill="none" xmlns="http://www.w3.org/2000/svg">
    <path d="M9.59846 0C14.9313 0 19.0985 4.9375 19.0985 4.9375C19.2297 5.0875 19.2297 5.3125 19.0985 5.4625C19.0985 5.4625 14.9313 10.4 9.59846 10.4C4.26565 10.4 0.0984612 5.4625 0.0984612 5.4625C-0.0327892 5.3125 -0.0327892 5.0875 0.0984612 4.9375C0.0984612 4.9375 4.26565 0 9.59846 0ZM9.59846 0.8C8.5469 0.8 7.54221 1.01719 6.61096 1.35C5.98596 2.05625 5.59846 2.97969 5.59846 4C5.59846 6.21406 7.3844 8 9.59846 8C11.8125 8 13.5985 6.21406 13.5985 4C13.5985 2.97969 13.2235 2.05625 12.5985 1.35C11.6641 1.01563 10.6531 0.8 9.59846 0.8ZM13.9235 1.9375C14.2235 2.5625 14.3985 3.2625 14.3985 4C14.3985 6.64688 12.2453 8.8 9.59846 8.8C6.95159 8.8 4.79846 6.64688 4.79846 4C4.79846 3.26563 4.96565 2.5625 5.26096 1.9375C3.00159 3.08594 1.37659 4.75156 0.96096 5.2C1.61096 5.90313 5.2094 9.6 9.59846 9.6C13.9875 9.6 17.586 5.90313 18.236 5.2C17.8203 4.75 16.1875 3.08594 13.9235 1.9375ZM9.59846 2C10.7031 2 11.5985 2.89531 11.5985 4C11.5985 5.10469 10.7031 6 9.59846 6C8.49377 6 7.59846 5.10469 7.59846 4C7.59846 2.89531 8.49377 2 9.59846 2Z"
          fill="#C4C4C4"/>
</svg>
